<svg width="960" height="540" xmlns="http://www.w3.org/2000/svg"><path d="M0 344l26.7 3.7c26.6 3.6 80 11 133.3 12.1 53.3 1.2 106.7-3.8 160-7 53.3-3.1 106.7-4.5 160-2.8 53.3 1.7 106.7 6.3 160 10.8 53.3 4.5 106.7 8.9 160 10.9s106.7 1.6 133.3 1.5l26.7-.2v168H0z" fill="#f7f5eb"/><path d="M0 410l26.7-6.8c26.6-6.9 80-20.5 133.3-20.4 53.3.2 106.7 14.2 160 18.5 53.3 4.4 106.7-1 160-8.3 53.3-7.3 106.7-16.7 160-18 53.3-1.3 106.7 5.3 160 6 53.3.7 106.7-4.7 133.3-7.3L960 371v170H0z" fill="#f3f0e6"/><path d="M0 403l26.7 3c26.6 3 80 9 133.3 9 53.3 0 106.7-6 160-5.2 53.3.9 106.7 8.5 160 13.5s106.7 7.4 160 2.2 106.7-17.8 160-20.5c53.3-2.7 106.7 4.7 133.3 8.3L960 417v124H0z" fill="#f0ebe0"/><path d="M0 428l26.7 1.5c26.6 1.5 80 4.5 133.3 5.5 53.3 1 106.7 0 160 .3 53.3.4 106.7 2 160 5.5s106.7 8.9 160 12.2c53.3 3.3 106.7 4.7 160-.5s106.7-16.8 133.3-22.7L960 424v117H0z" fill="#ece6db"/><path d="M0 468l26.7-1.7c26.6-1.6 80-5 133.3-5.5 53.3-.5 106.7 1.9 160 1.4s106.7-3.9 160-3.9 106.7 3.4 160 1.9 106.7-7.9 160-10.4 106.7-1.1 133.3-.5l26.7.7v91H0z" fill="#e8e1d6"/><path d="M0 489l26.7 2.3c26.6 2.4 80 7 133.3 4 53.3-3 106.7-13.6 160-19 53.3-5.3 106.7-5.3 160 .4 53.3 5.6 106.7 17 160 19.8 53.3 2.8 106.7-2.8 160-5.7 53.3-2.8 106.7-2.8 133.3-2.8H960v53H0z" fill="#e5dcd0"/><path d="M0 508l26.7-.7c26.6-.6 80-2 133.3-1.3 53.3.7 106.7 3.3 160 5.5s106.7 3.8 160 4.8 106.7 1.4 160-1.3 106.7-8.3 160-11.5c53.3-3.2 106.7-3.8 133.3-4.2l26.7-.3v42H0z" fill="#e1d7cb"/></svg>