<svg width="960" height="540" xmlns="http://www.w3.org/2000/svg"><path d="M0 190l26.7-5c26.6-5 80-15 133.3-19.2 53.3-4.1 106.7-2.5 160 2.5s106.7 13.4 160 14.5c53.3 1.2 106.7-4.8 160-5.6 53.3-.9 106.7 3.5 160 2.6 53.3-.8 106.7-6.8 133.3-9.8l26.7-3V0H0z" fill="#f7f5eb"/><path d="M0 141l26.7.5c26.6.5 80 1.5 133.3 4.3 53.3 2.9 106.7 7.5 160 6.5s106.7-7.6 160-7.3c53.3.3 106.7 7.7 160 5.7s106.7-13.4 160-16c53.3-2.7 106.7 3.3 133.3 6.3l26.7 3V0H0z" fill="#f3f0e6"/><path d="M0 114l26.7 1c26.6 1 80 3 133.3 2 53.3-1 106.7-5 160-5.5s106.7 2.5 160 2.8c53.3.4 106.7-2 160 2.5s106.7 15.9 160 16.7c53.3.8 106.7-8.8 133.3-13.7L960 115V0H0z" fill="#f0ebe0"/><path d="M0 97l26.7-.5c26.6-.5 80-1.5 133.3-2 53.3-.5 106.7-.5 160-2.8 53.3-2.4 106.7-7 160-9.5s106.7-2.9 160-.5C693.3 84 746.7 89 800 93.2c53.3 4.1 106.7 7.5 133.3 9.1L960 104V0H0z" fill="#ece6db"/><path d="M0 63l26.7 1.5C53.3 66 106.7 69 160 68c53.3-1 106.7-6 160-8s106.7-1 160 0 106.7 2 160 4.8c53.3 2.9 106.7 7.5 160 6.4C853.3 70 906.7 63 933.3 59.5L960 56V0H0z" fill="#e8e1d6"/><path d="M0 42l26.7 1.2c26.6 1.1 80 3.5 133.3 7.3 53.3 3.8 106.7 9.2 160 9 53.3-.2 106.7-5.8 160-7.5 53.3-1.7 106.7.7 160 .2 53.3-.5 106.7-3.9 160-5.5C853.3 45 906.7 45 933.3 45H960V0H0z" fill="#e5dcd0"/><path d="M0 34l26.7-3.7c26.6-3.6 80-11 133.3-11.5 53.3-.5 106.7 5.9 160 9.7 53.3 3.8 106.7 5.2 160 2s106.7-10.8 160-12.8 106.7 1.6 160 4.1c53.3 2.5 106.7 3.9 133.3 4.5l26.7.7V0H0z" fill="#e1d7cb"/></svg>