<svg id="visual" viewBox="0 0 960 100" width="960" height="100" xmlns="http://www.w3.org/2000/svg" xmlns:xlink="http://www.w3.org/1999/xlink" version="1.1"><path d="M0 29L10 25.3C20 21.7 40 14.3 60 11C80 7.7 100 8.3 120 10.2C140 12 160 15 180 18.2C200 21.3 220 24.7 240 23.2C260 21.7 280 15.3 300 12.5C320 9.7 340 10.3 360 10.8C380 11.3 400 11.7 420 12C440 12.3 460 12.7 480 11C500 9.3 520 5.7 540 7.7C560 9.7 580 17.3 600 19.5C620 21.7 640 18.3 660 15.8C680 13.3 700 11.7 720 12.8C740 14 760 18 780 16.7C800 15.3 820 8.7 840 7.5C860 6.3 880 10.7 900 11C920 11.3 940 7.7 950 5.8L960 4L960 101L950 101C940 101 920 101 900 101C880 101 860 101 840 101C820 101 800 101 780 101C760 101 740 101 720 101C700 101 680 101 660 101C640 101 620 101 600 101C580 101 560 101 540 101C520 101 500 101 480 101C460 101 440 101 420 101C400 101 380 101 360 101C340 101 320 101 300 101C280 101 260 101 240 101C220 101 200 101 180 101C160 101 140 101 120 101C100 101 80 101 60 101C40 101 20 101 10 101L0 101Z" fill="#e1d7cb"></path><path d="M0 21L10 24.8C20 28.7 40 36.3 60 39.2C80 42 100 40 120 36.8C140 33.7 160 29.3 180 29.2C200 29 220 33 240 35.2C260 37.3 280 37.7 300 36C320 34.3 340 30.7 360 30.8C380 31 400 35 420 34.5C440 34 460 29 480 29.7C500 30.3 520 36.7 540 39.2C560 41.7 580 40.3 600 38.5C620 36.7 640 34.3 660 35.5C680 36.7 700 41.3 720 39.2C740 37 760 28 780 25.3C800 22.7 820 26.3 840 29.8C860 33.3 880 36.7 900 38.3C920 40 940 40 950 40L960 40L960 101L950 101C940 101 920 101 900 101C880 101 860 101 840 101C820 101 800 101 780 101C760 101 740 101 720 101C700 101 680 101 660 101C640 101 620 101 600 101C580 101 560 101 540 101C520 101 500 101 480 101C460 101 440 101 420 101C400 101 380 101 360 101C340 101 320 101 300 101C280 101 260 101 240 101C220 101 200 101 180 101C160 101 140 101 120 101C100 101 80 101 60 101C40 101 20 101 10 101L0 101Z" fill="#e6dfd3"></path><path d="M0 39L10 38.7C20 38.3 40 37.7 60 41C80 44.3 100 51.7 120 52C140 52.3 160 45.7 180 43.8C200 42 220 45 240 44.5C260 44 280 40 300 42C320 44 340 52 360 52C380 52 400 44 420 42.3C440 40.7 460 45.3 480 49.8C500 54.3 520 58.7 540 58.2C560 57.7 580 52.3 600 51.7C620 51 640 55 660 57.7C680 60.3 700 61.7 720 62.2C740 62.7 760 62.3 780 59.2C800 56 820 50 840 48.5C860 47 880 50 900 49.8C920 49.7 940 46.3 950 44.7L960 43L960 101L950 101C940 101 920 101 900 101C880 101 860 101 840 101C820 101 800 101 780 101C760 101 740 101 720 101C700 101 680 101 660 101C640 101 620 101 600 101C580 101 560 101 540 101C520 101 500 101 480 101C460 101 440 101 420 101C400 101 380 101 360 101C340 101 320 101 300 101C280 101 260 101 240 101C220 101 200 101 180 101C160 101 140 101 120 101C100 101 80 101 60 101C40 101 20 101 10 101L0 101Z" fill="#ece6db"></path><path d="M0 65L10 63.8C20 62.7 40 60.3 60 62.3C80 64.3 100 70.7 120 73C140 75.3 160 73.7 180 72.3C200 71 220 70 240 67C260 64 280 59 300 60C320 61 340 68 360 71.3C380 74.7 400 74.3 420 72C440 69.7 460 65.3 480 64C500 62.7 520 64.3 540 66C560 67.7 580 69.3 600 71C620 72.7 640 74.3 660 71.5C680 68.7 700 61.3 720 57.3C740 53.3 760 52.7 780 53.2C800 53.7 820 55.3 840 56.3C860 57.3 880 57.7 900 58.3C920 59 940 60 950 60.5L960 61L960 101L950 101C940 101 920 101 900 101C880 101 860 101 840 101C820 101 800 101 780 101C760 101 740 101 720 101C700 101 680 101 660 101C640 101 620 101 600 101C580 101 560 101 540 101C520 101 500 101 480 101C460 101 440 101 420 101C400 101 380 101 360 101C340 101 320 101 300 101C280 101 260 101 240 101C220 101 200 101 180 101C160 101 140 101 120 101C100 101 80 101 60 101C40 101 20 101 10 101L0 101Z" fill="#f1eee3"></path><path d="M0 80L10 79.2C20 78.3 40 76.7 60 79.2C80 81.7 100 88.3 120 88.2C140 88 160 81 180 81.2C200 81.3 220 88.7 240 91.5C260 94.3 280 92.7 300 91C320 89.3 340 87.7 360 86C380 84.3 400 82.7 420 79.7C440 76.7 460 72.3 480 73.3C500 74.3 520 80.7 540 84.8C560 89 580 91 600 92.3C620 93.7 640 94.3 660 94.5C680 94.7 700 94.3 720 90.2C740 86 760 78 780 77C800 76 820 82 840 84C860 86 880 84 900 85.3C920 86.7 940 91.3 950 93.7L960 96L960 101L950 101C940 101 920 101 900 101C880 101 860 101 840 101C820 101 800 101 780 101C760 101 740 101 720 101C700 101 680 101 660 101C640 101 620 101 600 101C580 101 560 101 540 101C520 101 500 101 480 101C460 101 440 101 420 101C400 101 380 101 360 101C340 101 320 101 300 101C280 101 260 101 240 101C220 101 200 101 180 101C160 101 140 101 120 101C100 101 80 101 60 101C40 101 20 101 10 101L0 101Z" fill="#f7f5eb"></path></svg>