<svg id="visual" viewBox="0 0 960 100" width="960" height="100" xmlns="http://www.w3.org/2000/svg" xmlns:xlink="http://www.w3.org/1999/xlink" version="1.1"><path d="M0 88L10 89.2C20 90.3 40 92.7 60 93.2C80 93.7 100 92.3 120 88.2C140 84 160 77 180 75.7C200 74.3 220 78.7 240 82.5C260 86.3 280 89.7 300 91.8C320 94 340 95 360 93.7C380 92.3 400 88.7 420 88.3C440 88 460 91 480 89.8C500 88.7 520 83.3 540 79.5C560 75.7 580 73.3 600 73.3C620 73.3 640 75.7 660 78.7C680 81.7 700 85.3 720 87.8C740 90.3 760 91.7 780 90C800 88.3 820 83.7 840 83.2C860 82.7 880 86.3 900 88C920 89.7 940 89.3 950 89.2L960 89L960 0L950 0C940 0 920 0 900 0C880 0 860 0 840 0C820 0 800 0 780 0C760 0 740 0 720 0C700 0 680 0 660 0C640 0 620 0 600 0C580 0 560 0 540 0C520 0 500 0 480 0C460 0 440 0 420 0C400 0 380 0 360 0C340 0 320 0 300 0C280 0 260 0 240 0C220 0 200 0 180 0C160 0 140 0 120 0C100 0 80 0 60 0C40 0 20 0 10 0L0 0Z" fill="#e1d7cb"></path><path d="M0 61L10 59.8C20 58.7 40 56.3 60 56.5C80 56.7 100 59.3 120 59.7C140 60 160 58 180 56.5C200 55 220 54 240 58C260 62 280 71 300 75.5C320 80 340 80 360 76.3C380 72.7 400 65.3 420 63.2C440 61 460 64 480 63.3C500 62.7 520 58.3 540 57.8C560 57.3 580 60.7 600 63C620 65.3 640 66.7 660 65.5C680 64.3 700 60.7 720 59.5C740 58.3 760 59.7 780 61.2C800 62.7 820 64.3 840 66.5C860 68.7 880 71.3 900 71.2C920 71 940 68 950 66.5L960 65L960 0L950 0C940 0 920 0 900 0C880 0 860 0 840 0C820 0 800 0 780 0C760 0 740 0 720 0C700 0 680 0 660 0C640 0 620 0 600 0C580 0 560 0 540 0C520 0 500 0 480 0C460 0 440 0 420 0C400 0 380 0 360 0C340 0 320 0 300 0C280 0 260 0 240 0C220 0 200 0 180 0C160 0 140 0 120 0C100 0 80 0 60 0C40 0 20 0 10 0L0 0Z" fill="#e6dfd3"></path><path d="M0 61L10 57.7C20 54.3 40 47.7 60 44.5C80 41.3 100 41.7 120 44.5C140 47.3 160 52.7 180 54.5C200 56.3 220 54.7 240 52.7C260 50.7 280 48.3 300 49.8C320 51.3 340 56.7 360 56.3C380 56 400 50 420 45.5C440 41 460 38 480 36.8C500 35.7 520 36.3 540 37.5C560 38.7 580 40.3 600 43.8C620 47.3 640 52.7 660 53.3C680 54 700 50 720 46.7C740 43.3 760 40.7 780 40.8C800 41 820 44 840 45.8C860 47.7 880 48.3 900 50.8C920 53.3 940 57.7 950 59.8L960 62L960 0L950 0C940 0 920 0 900 0C880 0 860 0 840 0C820 0 800 0 780 0C760 0 740 0 720 0C700 0 680 0 660 0C640 0 620 0 600 0C580 0 560 0 540 0C520 0 500 0 480 0C460 0 440 0 420 0C400 0 380 0 360 0C340 0 320 0 300 0C280 0 260 0 240 0C220 0 200 0 180 0C160 0 140 0 120 0C100 0 80 0 60 0C40 0 20 0 10 0L0 0Z" fill="#ece6db"></path><path d="M0 21L10 24.2C20 27.3 40 33.7 60 37C80 40.3 100 40.7 120 37C140 33.3 160 25.7 180 25.5C200 25.3 220 32.7 240 35.5C260 38.3 280 36.7 300 33.8C320 31 340 27 360 27.8C380 28.7 400 34.3 420 38.3C440 42.3 460 44.7 480 44.5C500 44.3 520 41.7 540 38.2C560 34.7 580 30.3 600 29.5C620 28.7 640 31.3 660 31.5C680 31.7 700 29.3 720 29C740 28.7 760 30.3 780 29C800 27.7 820 23.3 840 25.3C860 27.3 880 35.7 900 36.8C920 38 940 32 950 29L960 26L960 0L950 0C940 0 920 0 900 0C880 0 860 0 840 0C820 0 800 0 780 0C760 0 740 0 720 0C700 0 680 0 660 0C640 0 620 0 600 0C580 0 560 0 540 0C520 0 500 0 480 0C460 0 440 0 420 0C400 0 380 0 360 0C340 0 320 0 300 0C280 0 260 0 240 0C220 0 200 0 180 0C160 0 140 0 120 0C100 0 80 0 60 0C40 0 20 0 10 0L0 0Z" fill="#f1eee3"></path><path d="M0 14L10 13.7C20 13.3 40 12.7 60 10.8C80 9 100 6 120 5.2C140 4.3 160 5.7 180 5.5C200 5.3 220 3.7 240 6.5C260 9.3 280 16.7 300 21.3C320 26 340 28 360 24.2C380 20.3 400 10.7 420 6C440 1.3 460 1.7 480 3.7C500 5.7 520 9.3 540 13.2C560 17 580 21 600 22.5C620 24 640 23 660 19.8C680 16.7 700 11.3 720 11C740 10.7 760 15.3 780 17.7C800 20 820 20 840 19.2C860 18.3 880 16.7 900 16C920 15.3 940 15.7 950 15.8L960 16L960 0L950 0C940 0 920 0 900 0C880 0 860 0 840 0C820 0 800 0 780 0C760 0 740 0 720 0C700 0 680 0 660 0C640 0 620 0 600 0C580 0 560 0 540 0C520 0 500 0 480 0C460 0 440 0 420 0C400 0 380 0 360 0C340 0 320 0 300 0C280 0 260 0 240 0C220 0 200 0 180 0C160 0 140 0 120 0C100 0 80 0 60 0C40 0 20 0 10 0L0 0Z" fill="#f7f5eb"></path></svg>